<?xml version="1.0" encoding="utf-8"?>
<!-- Generator: Adobe Illustrator 23.0.0, SVG Export Plug-In . SVG Version: 6.00 Build 0)  -->
<svg version="1.1" id="Layer_1" xmlns="http://www.w3.org/2000/svg" xmlns:xlink="http://www.w3.org/1999/xlink" x="0px" y="0px"
	 viewBox="0 0 512 512" style="enable-background:new 0 0 512 512;" xml:space="preserve">
<style type="text/css">
	.st0{fill:#E88793;}
	.st1{fill:#FC93A0;}
	.st2{fill:#FDA5B7;}
	.st3{fill:#FFEFDE;}
	.st4{fill:#FF00FF;}
	.st5{fill:#F473EE;}
</style>
<path class="st0" d="M505.51,322.67L147.74,38.78c-11.19-8.88-27.76-0.9-27.76,13.41v283.89c0,9.46,7.67,17.12,17.12,17.12h357.77
	C511.05,353.2,518.18,332.72,505.51,322.67z"/>
<path class="st1" d="M147.74,38.78c-11.19-8.88-27.76-0.9-27.76,13.41v132.49c106,8.15,155.8,58.59,286.38,59.31L147.74,38.78z"/>
<path class="st2" d="M286.64,148.99L147.74,38.78c-11.19-8.88-27.76-0.9-27.76,13.41v51.86
	C178.61,106.21,203.79,135.46,286.64,148.99z"/>
<path class="st3" d="M398.04,184.65c36.02,18.8,80.1-7.26,80.1-48.62c0-39.42-40.49-65.84-76.42-50.38V21.23
	c0-9.17-7.44-16.61-16.61-16.61s-16.61,7.44-16.61,16.61v153.01C368.5,189.84,388.21,196.84,398.04,184.65z M423.32,114.43
	c11.91,0,21.6,9.69,21.6,21.6c0,11.91-9.69,21.6-21.6,21.6s-21.6-9.69-21.6-21.6C401.72,124.12,411.41,114.43,423.32,114.43z"/>
<path class="st4" d="M48.98,115.55H34.43c-9.17,0-16.61,7.44-16.61,16.61c0,9.17,7.44,16.61,16.61,16.61h14.55
	c8.61,0,15.61,7,15.61,15.61v5.19C32.83,158.79,0,182.59,0,215.89c0,35.72,37.33,59.52,69.7,44.26
	c10.5,10.11,28.12,2.66,28.12-11.96v-83.8C97.82,137.46,75.91,115.55,48.98,115.55z M48.91,231.58c-8.65,0-15.69-7.04-15.69-15.69
	c0-8.65,7.04-15.68,15.69-15.68s15.69,7.04,15.69,15.68C64.59,224.54,57.56,231.58,48.91,231.58z"/>
<path class="st5" d="M304.81,405.54c9.17,0,16.61-7.44,16.61-16.61s-7.44-16.61-16.61-16.61c-37.24,0-67.53,30.29-67.53,67.53
	s30.29,67.53,67.53,67.53c9.17,0,16.61-7.44,16.61-16.61s-7.44-16.61-16.61-16.61c-18.92,0-34.31-15.39-34.31-34.31
	C270.5,420.93,285.89,405.54,304.81,405.54L304.81,405.54z"/>
</svg>
